<svg width="600" height="400" viewBox="0 0 600 400" xmlns="http://www.w3.org/2000/svg">
  <!-- Eye with AI Tech Design -->
  <g transform="translate(100, 50)">
    <!-- Outer Eye Shape -->
    <path d="M 50 150 Q 200 50 350 150 Q 200 250 50 150 Z" 
          fill="none" 
          stroke="#0D9488" 
          stroke-width="8" 
          stroke-linecap="round"/>
    
    <!-- Inner Eye Shape -->
    <path d="M 80 150 Q 200 80 320 150 Q 200 220 80 150 Z" 
          fill="none" 
          stroke="#1E3A8A" 
          stroke-width="6" 
          stroke-linecap="round"/>
    
    <!-- Iris/Pupil -->
    <circle cx="200" cy="150" r="50" fill="#1E3A8A"/>
    <circle cx="200" cy="150" r="20" fill="#FFFFFF"/>
    
    <!-- AI Neural Network Pattern in Iris -->
    <g transform="translate(200, 150)">
      <!-- Center node -->
      <circle r="4" fill="#0D9488"/>
      
      <!-- Inner ring nodes -->
      <circle cx="15" cy="0" r="2" fill="#0D9488"/>
      <circle cx="-15" cy="0" r="2" fill="#0D9488"/>
      <circle cx="0" cy="15" r="2" fill="#0D9488"/>
      <circle cx="0" cy="-15" r="2" fill="#0D9488"/>
      <circle cx="11" cy="11" r="2" fill="#0D9488"/>
      <circle cx="-11" cy="-11" r="2" fill="#0D9488"/>
      <circle cx="11" cy="-11" r="2" fill="#0D9488"/>
      <circle cx="-11" cy="11" r="2" fill="#0D9488"/>
      
      <!-- Outer ring nodes -->
      <circle cx="25" cy="0" r="1.5" fill="#0D9488"/>
      <circle cx="-25" cy="0" r="1.5" fill="#0D9488"/>
      <circle cx="0" cy="25" r="1.5" fill="#0D9488"/>
      <circle cx="0" cy="-25" r="1.5" fill="#0D9488"/>
      
      <!-- Connections -->
      <line x1="0" y1="0" x2="15" y2="0" stroke="#0D9488" stroke-width="1"/>
      <line x1="0" y1="0" x2="-15" y2="0" stroke="#0D9488" stroke-width="1"/>
      <line x1="0" y1="0" x2="0" y2="15" stroke="#0D9488" stroke-width="1"/>
      <line x1="0" y1="0" x2="0" y2="-15" stroke="#0D9488" stroke-width="1"/>
      <line x1="15" y1="0" x2="25" y2="0" stroke="#0D9488" stroke-width="0.5"/>
      <line x1="-15" y1="0" x2="-25" y2="0" stroke="#0D9488" stroke-width="0.5"/>
      <line x1="0" y1="15" x2="0" y2="25" stroke="#0D9488" stroke-width="0.5"/>
      <line x1="0" y1="-15" x2="0" y2="-25" stroke="#0D9488" stroke-width="0.5"/>
    </g>
    
    <!-- Tech nodes around the eye -->
    <!-- Upper nodes -->
    <circle cx="120" cy="80" r="3" fill="#0D9488"/>
    <circle cx="280" cy="80" r="3" fill="#1E3A8A"/>
    <circle cx="200" cy="60" r="3" fill="#0D9488"/>
    
    <!-- Lower nodes -->
    <circle cx="120" cy="220" r="3" fill="#1E3A8A"/>
    <circle cx="280" cy="220" r="3" fill="#0D9488"/>
    <circle cx="200" cy="240" r="3" fill="#1E3A8A"/>
    
    <!-- Side nodes -->
    <circle cx="40" cy="150" r="4" fill="#1E3A8A"/>
    <circle cx="360" cy="150" r="4" fill="#0D9488"/>
    <circle cx="20" cy="120" r="2" fill="#0D9488"/>
    <circle cx="380" cy="180" r="2" fill="#1E3A8A"/>
    
    <!-- Tech connections -->
    <path d="M 40 150 Q 60 120 80 150" fill="none" stroke="#0D9488" stroke-width="2"/>
    <path d="M 320 150 Q 340 120 360 150" fill="none" stroke="#1E3A8A" stroke-width="2"/>
    <path d="M 200 60 Q 160 100 120 80" fill="none" stroke="#0D9488" stroke-width="1.5"/>
    <path d="M 200 240 Q 240 200 280 220" fill="none" stroke="#1E3A8A" stroke-width="1.5"/>
  </g>
  
  <!-- OpthalmoAI Text -->
  <text x="300" y="320" text-anchor="middle" font-family="Arial, sans-serif" font-size="48" font-weight="bold">
    <tspan fill="#1E3A8A">Opthalmo</tspan><tspan fill="#0D9488">AI</tspan>
  </text>
</svg>