<svg width="300" height="200" viewBox="0 0 300 200" xmlns="http://www.w3.org/2000/svg">
  <!-- Eye with AI Tech Design (Icon only, no text) -->
  <g transform="translate(50, 25)">
    <!-- Outer Eye Shape -->
    <path d="M 25 75 Q 100 25 175 75 Q 100 125 25 75 Z" 
          fill="none" 
          stroke="#0D9488" 
          stroke-width="6" 
          stroke-linecap="round"/>
    
    <!-- Inner Eye Shape -->
    <path d="M 40 75 Q 100 40 160 75 Q 100 110 40 75 Z" 
          fill="none" 
          stroke="#1E3A8A" 
          stroke-width="4" 
          stroke-linecap="round"/>
    
    <!-- Iris/Pupil -->
    <circle cx="100" cy="75" r="25" fill="#1E3A8A"/>
    <circle cx="100" cy="75" r="10" fill="#FFFFFF"/>
    
    <!-- AI Neural Network Pattern in Iris -->
    <g transform="translate(100, 75)">
      <!-- Center node -->
      <circle r="2" fill="#0D9488"/>
      
      <!-- Inner ring nodes -->
      <circle cx="8" cy="0" r="1" fill="#0D9488"/>
      <circle cx="-8" cy="0" r="1" fill="#0D9488"/>
      <circle cx="0" cy="8" r="1" fill="#0D9488"/>
      <circle cx="0" cy="-8" r="1" fill="#0D9488"/>
      <circle cx="6" cy="6" r="1" fill="#0D9488"/>
      <circle cx="-6" cy="-6" r="1" fill="#0D9488"/>
      <circle cx="6" cy="-6" r="1" fill="#0D9488"/>
      <circle cx="-6" cy="6" r="1" fill="#0D9488"/>
      
      <!-- Outer ring nodes -->
      <circle cx="12" cy="0" r="0.8" fill="#0D9488"/>
      <circle cx="-12" cy="0" r="0.8" fill="#0D9488"/>
      <circle cx="0" cy="12" r="0.8" fill="#0D9488"/>
      <circle cx="0" cy="-12" r="0.8" fill="#0D9488"/>
      
      <!-- Connections -->
      <line x1="0" y1="0" x2="8" y2="0" stroke="#0D9488" stroke-width="0.5"/>
      <line x1="0" y1="0" x2="-8" y2="0" stroke="#0D9488" stroke-width="0.5"/>
      <line x1="0" y1="0" x2="0" y2="8" stroke="#0D9488" stroke-width="0.5"/>
      <line x1="0" y1="0" x2="0" y2="-8" stroke="#0D9488" stroke-width="0.5"/>
      <line x1="8" y1="0" x2="12" y2="0" stroke="#0D9488" stroke-width="0.3"/>
      <line x1="-8" y1="0" x2="-12" y2="0" stroke="#0D9488" stroke-width="0.3"/>
      <line x1="0" y1="8" x2="0" y2="12" stroke="#0D9488" stroke-width="0.3"/>
      <line x1="0" y1="-8" x2="0" y2="-12" stroke="#0D9488" stroke-width="0.3"/>
    </g>
    
    <!-- Tech nodes around the eye -->
    <!-- Upper nodes -->
    <circle cx="60" cy="40" r="2" fill="#0D9488"/>
    <circle cx="140" cy="40" r="2" fill="#1E3A8A"/>
    <circle cx="100" cy="30" r="2" fill="#0D9488"/>
    
    <!-- Lower nodes -->
    <circle cx="60" cy="110" r="2" fill="#1E3A8A"/>
    <circle cx="140" cy="110" r="2" fill="#0D9488"/>
    <circle cx="100" cy="120" r="2" fill="#1E3A8A"/>
    
    <!-- Side nodes -->
    <circle cx="20" cy="75" r="2" fill="#1E3A8A"/>
    <circle cx="180" cy="75" r="2" fill="#0D9488"/>
    <circle cx="10" cy="60" r="1.5" fill="#0D9488"/>
    <circle cx="190" cy="90" r="1.5" fill="#1E3A8A"/>
    
    <!-- Tech connections -->
    <path d="M 20 75 Q 30 60 40 75" fill="none" stroke="#0D9488" stroke-width="1"/>
    <path d="M 160 75 Q 170 60 180 75" fill="none" stroke="#1E3A8A" stroke-width="1"/>
    <path d="M 100 30 Q 80 50 60 40" fill="none" stroke="#0D9488" stroke-width="0.8"/>
    <path d="M 100 120 Q 120 100 140 110" fill="none" stroke="#1E3A8A" stroke-width="0.8"/>
  </g>
</svg>